<svg width="436" height="320" viewBox="0 0 436 320" fill="none" xmlns="http://www.w3.org/2000/svg">
<g clip-path="url(#clip0_407_977)">
<path d="M518.553 156.403C519.798 153.46 518.228 150.56 519.079 148.888C537.551 112.558 535.789 90.3487 512.694 64.0689C482.941 30.2149 445.673 23.9482 416.542 34.608C290.147 80.8584 163.628 126.768 35.4669 173.413C34.7616 176.723 35.7433 179.42 37.593 181.958C85.9816 208.193 132.451 201.335 181.151 182.135C261.704 150.378 343.693 122.261 425.136 92.7743C430.928 90.6772 437.615 87.9107 443.165 89.026C451.321 90.6647 463.358 93.7159 465.627 99.4027C469.802 109.864 461.55 116.47 450.33 120.451C383.707 144.089 317.372 168.542 250.941 192.72C245.504 194.699 240.068 196.678 234.631 198.657C234.57 201.537 234.508 204.417 234.446 207.297C258.263 213.347 282.106 219.302 305.869 225.557C309.156 226.423 312.05 228.778 315.126 230.444C382.373 205.968 449.62 181.492 518.553 156.403Z" fill="#15B3E8"/>
<path d="M194.774 17.6934C192.94 20.9657 193.818 24.4011 192.484 26.1624C179.154 43.7575 169.925 62.8167 168.302 87.1208C307.017 36.6326 444.057 -13.2456 581.699 -63.3432C555.985 -81.694 526.821 -86.6279 498.091 -91.6122C398.126 -56.3205 297.294 -19.6205 194.774 17.6934Z" fill="#15B3E8"/>
</g>
<defs>
<clipPath id="clip0_407_977">
<rect width="601.219" height="241.083" fill="white" transform="matrix(0.939693 -0.34202 -0.34202 -0.939693 82.5342 319.173)"/>
</clipPath>
</defs>
</svg>
