<svg width="483" height="318" viewBox="0 0 483 318" fill="none" xmlns="http://www.w3.org/2000/svg">
<g clip-path="url(#clip0_407_972)">
<path d="M240.081 58.2028C243.388 59.8939 244.158 63.6506 246.166 64.5047C289.777 83.0596 304.809 104.161 303.878 144.835C302.68 197.232 274.165 230.672 240.247 242.951C93.081 296.228 -53.9407 349.903 -202.975 404.148C-206.077 401.727 -207.219 398.591 -207.468 394.947C-183.973 335.407 -137.451 306.782 -79.717 287.483C15.7784 255.561 109.833 219.322 204.424 184.712C211.152 182.25 219.175 179.717 223.287 174.574C229.327 167.018 237.769 155.302 235.54 148.54C231.439 136.101 219.15 136.384 206.179 141.225C129.161 169.968 51.7917 197.769 -25.4597 225.886C-31.7816 228.187 -38.1035 230.488 -44.4255 232.789C-46.6334 230.27 -48.8414 227.75 -51.0493 225.231C-34.3547 202.038 -17.5663 178.912 -1.07397 155.577C1.20759 152.348 2.02497 148.087 3.52017 144.304C81.7199 115.841 159.92 87.379 240.081 58.2028Z" fill="url(#paint0_linear_407_972)"/>
<path d="M55.3361 423.786C51.2556 422.243 49.4703 418.526 46.9652 417.954C21.9391 412.244 -0.52914 402.165 -20.1417 381.727C141.167 323.015 300.527 265.013 460.587 206.756C451.398 242.324 429.107 268.518 407.24 294.433C291.809 337.717 174.553 380.395 55.3361 423.786Z" fill="url(#paint1_linear_407_972)"/>
</g>
<defs>
<linearGradient id="paint0_linear_407_972" x1="-263.963" y1="241.66" x2="334.971" y2="239.541" gradientUnits="userSpaceOnUse">
<stop stop-color="#14B7ED"/>
<stop offset="1" stop-color="#0554F2"/>
</linearGradient>
<linearGradient id="paint1_linear_407_972" x1="-20.1417" y1="381.727" x2="384.319" y2="532.571" gradientUnits="userSpaceOnUse">
<stop stop-color="#14B7ED"/>
<stop offset="1" stop-color="#0554F2"/>
</linearGradient>
<clipPath id="clip0_407_972">
<rect width="699.144" height="280.35" fill="white" transform="translate(-270 239.121) rotate(-20)"/>
</clipPath>
</defs>
</svg>
